# xmcd
#
# Track frame offsets:
#	150
#	20539
#	31647
#	41072
#	55111
#	64707
#	75880
#	91267
#	107436
#	117435
#	134330
#	143097
#	158680
#	172865
#	184341
#	202620
#	214639
#	226382
#	241411
#	252762
#	268412
#	281988
#	291903
#	304886
#	323273
#	336524
#
# Disc length: 4677 seconds
#
# Revision: 1
# Processed by: cddbd v1.5.2PL0 Copyright (c) Steve Scherf et al.
# Submitted via: EasyCDDAExtractor 12.0.1.1
#
DISCID=6712431a
DTITLE=Various Artist - Country Hits, Vol. 10
DYEAR=2009
DGENRE=Country
TTITLE0=Bobby Bare - Let Him Roll
TTITLE1=Patty Loveless - Chains
TTITLE2=Waylon Jennings - That's The Chance I'll Have To Take
TTITLE3=Randy Travis - On The Other Hand
TTITLE4=Waylon Jennings - Honky Tonkin
TTITLE5=Jann Browne - Excuse Me (I Think I've Got A heartache)
TTITLE6=Bobby Bare - Good Night Irene
TTITLE7=Waylon Jennings - Fallin' Out
TTITLE8=Waylon Jennings - Half As Much
TTITLE9=Martina McBride - Wild Angels
TTITLE10=Bobby Bare - I've Never Gone To Bed With An Ugly Wuman
TTITLE11=Martina McBride - Swingin' Doors
TTITLE12=Martina McBride - Cry On The Shoulder of The Road
TTITLE13=Jann Browne - Playgirl (Playboy)
TTITLE14=Bobby Bare - The Jogger
TTITLE15=Patty Loveless - Please Help Me, I'm Falling
TTITLE16=Martina McBride - My Baby Loves Me
TTITLE17=Martina McBride - Satin Sheets
TTITLE18=Bobby Bare - Food Blues
TTITLE19=Rodney Atkins - Rockin' Of The Cradle
TTITLE20=Randy Travis - 1982
TTITLE21=Waylon Jennings - Hey Good Lookin
TTITLE22=Bobby Bare - Greasy Grit Gravy
TTITLE23=Martina Mcbride - This One's For The Girls (Remix)
TTITLE24=Bobby Bare - Finger on The Button
TTITLE25=Randy Travis - Look Heart, No Hands
EXTD=
EXTT0=
EXTT1=
EXTT2=
EXTT3=
EXTT4=
EXTT5=
EXTT6=
EXTT7=
EXTT8=
EXTT9=
EXTT10=
EXTT11=
EXTT12=
EXTT13=
EXTT14=
EXTT15=
EXTT16=
EXTT17=
EXTT18=
EXTT19=
EXTT20=
EXTT21=
EXTT22=
EXTT23=
EXTT24=
EXTT25=
PLAYORDER=
